<?xml version="1.0" encoding="utf-8"?>
<!-- Generator: Adobe Illustrator 25.1.0, SVG Export Plug-In . SVG Version: 6.00 Build 0)  -->
<svg version="1.1" id="Layer_1" xmlns="http://www.w3.org/2000/svg" xmlns:xlink="http://www.w3.org/1999/xlink" x="0px" y="0px"
	 viewBox="0 0 111.9 23" style="enable-background:new 0 0 111.9 23;" xml:space="preserve">
<style type="text/css">
	.st0{fill:#FFFFFF;}
	.st1{fill:#212121;}
</style>
<g>
	<path class="st0" d="M2.2,0.9h3v21.7h-3V0.9z"/>
	<path class="st0" d="M7.3,0.9h3.5l11,17.6V0.9h2.8v21.7h-3.3L10.1,5.1v17.6H7.3V0.9z"/>
	<path class="st0" d="M26.7,0.9h15v2.7H29.6v6.6h10.6v2.6H29.6v9.9h-2.9V0.9z"/>
	<path class="st0" d="M43.5,0.9h3v21.7h-3V0.9z"/>
	<path class="st0" d="M48.3,0.9h3.5l11,17.6V0.9h2.8v21.7h-3.3L51.1,5.1v17.6h-2.8V0.9z"/>
	<path class="st0" d="M68.1,0.9h3v21.7h-3V0.9z"/>
	<path class="st0" d="M90,0.9v2.6h-7.3v19.1h-3V3.5h-7.3V0.9H90z"/>
	<path class="st0" d="M91.3,0.9h3.4l6.2,10.4l6.2-10.4h3.4l-8.2,12.9v8.7h-2.9v-8.7L91.3,0.9z"/>
</g>
</svg>
